<svg width="273" height="258" viewBox="0 0 273 258" fill="none" xmlns="http://www.w3.org/2000/svg">
<path d="M110.833 135.5H29.1667C22.7233 135.5 17.5 140.723 17.5 147.167V228.833C17.5 235.277 22.7233 240.5 29.1667 240.5H110.833C117.277 240.5 122.5 235.277 122.5 228.833V147.167C122.5 140.723 117.277 135.5 110.833 135.5Z" stroke="#2C2C2C" stroke-width="4" stroke-linecap="round" stroke-linejoin="round"/>
<path d="M45 55.4V59.6M38.7 61.7H51.3M32.4 55.4H57.6C59.9196 55.4 61.8 53.5196 61.8 51.2V36.5C61.8 34.1804 59.9196 32.3 57.6 32.3H32.4C30.0804 32.3 28.2 34.1804 28.2 36.5V51.2C28.2 53.5196 30.0804 55.4 32.4 55.4Z" stroke="black" stroke-width="2" stroke-linecap="round" stroke-linejoin="round"/>
<path d="M225 217.4V221.6M218.7 223.7H231.3M212.4 217.4H237.6C239.92 217.4 241.8 215.52 241.8 213.2V198.5C241.8 196.18 239.92 194.3 237.6 194.3H212.4C210.08 194.3 208.2 196.18 208.2 198.5V213.2C208.2 215.52 210.08 217.4 212.4 217.4Z" stroke="black" stroke-width="2" stroke-linecap="round" stroke-linejoin="round"/>
<path d="M234.45 51.35H223.95M215.55 51.5079V51.35M208.2 49.25L211.724 31.6263C212.117 29.6631 213.841 28.25 215.843 28.25H233.232C235.177 28.25 236.868 29.5852 237.318 31.4772L241.8 50.3M233.4 42.95H216.6C211.961 42.95 208.2 46.711 208.2 51.3503C208.2 55.9894 211.961 59.75 216.6 59.75H233.4C238.039 59.75 241.8 55.9892 241.8 51.35C241.8 46.7108 238.039 42.95 233.4 42.95Z" stroke="black" stroke-width="2" stroke-linecap="round" stroke-linejoin="round"/>
<path fill-rule="evenodd" clip-rule="evenodd" d="M119.515 36.9444C118.323 38.4898 114.465 41.6135 112.006 43.0273C109.222 44.6385 104.457 46.8744 103.838 46.8744C103.16 46.8744 101.817 48.814 108.196 51.1814C112.81 52.8912 116.862 54.963 119.235 56.8372C122.662 59.5663 123.288 58.6785 121.771 56.8043C120.603 55.3576 118.29 53.3519 115.797 51.7736L114.037 50.6556C141.641 49.6692 134.978 49.6364 178.615 49.1431C174.405 52.1353 171.352 54.141 171.332 56.5084C171.307 59.5992 172.603 59.7307 176.34 57.0016C178.416 55.4891 180.846 53.9763 183.098 52.661C189.911 48.6167 185.801 46.5127 180.282 43.6521C176.788 41.8436 172.185 38.72 170.576 37.1088C169.348 35.8594 168.848 35.7278 168.84 36.6814C168.827 38.3583 171.509 42.0406 174.147 43.9477C175.202 44.7039 174.814 45.2961 173.074 45.329C167.678 45.4276 146.25 44.8029 114.095 47.1703L116.022 45.8551C119.432 43.5206 121.722 41.0871 122.474 39.18C123.378 36.7797 121.243 34.7414 119.515 36.9444Z" fill="black"/>
<path fill-rule="evenodd" clip-rule="evenodd" d="M214.905 156.682C216.449 157.849 219.57 161.657 220.982 164.094C222.591 166.854 224.825 171.586 224.825 172.206C224.825 172.884 226.763 174.195 229.127 167.769C230.835 163.12 232.905 159.029 234.777 156.622C237.503 153.144 236.617 152.532 234.744 154.084C233.299 155.277 231.296 157.627 229.719 160.15L228.602 161.93C227.617 134.315 227.584 140.985 227.091 97.3101C230.08 101.474 232.084 104.496 234.449 104.475C237.536 104.447 237.668 103.147 234.942 99.453C233.431 97.4006 231.919 94.9941 230.606 92.7629C226.565 86.0112 224.464 90.162 221.606 95.7362C219.8 99.2645 216.679 103.926 215.07 105.564C213.822 106.815 213.69 107.317 214.643 107.309C216.318 107.294 219.996 104.546 221.901 101.872C222.657 100.803 223.248 101.181 223.281 102.922C223.38 108.322 222.756 129.784 225.121 161.932L223.807 160.026C221.475 156.653 219.044 154.402 217.139 153.681C214.741 152.817 212.705 154.99 214.905 156.682Z" fill="black"/>
<g clip-path="url(#clip0_2_48)">
<path fill-rule="evenodd" clip-rule="evenodd" d="M98.1187 181.388C97.8451 181.864 96.9505 182.827 96.3778 183.263C95.7291 183.76 94.6167 184.449 94.4708 184.449C94.311 184.449 94.0037 185.047 95.518 185.776C96.6135 186.303 97.5781 186.942 98.146 187.52C98.9665 188.361 99.11 188.087 98.7435 187.51C98.4616 187.064 97.9071 186.445 97.3122 185.959L96.8922 185.614C103.393 185.31 101.822 185.3 112.104 185.148C111.126 186.07 110.416 186.689 110.422 187.418C110.431 188.371 110.737 188.412 111.605 187.57C112.087 187.104 112.652 186.638 113.177 186.232C114.764 184.986 113.785 184.337 112.471 183.455C111.639 182.898 110.54 181.935 110.153 181.439C109.858 181.053 109.739 181.013 109.742 181.307C109.746 181.824 110.396 182.959 111.026 183.547C111.279 183.78 111.19 183.962 110.78 183.972C109.509 184.003 104.456 183.81 96.8895 184.54L97.3375 184.135C98.13 183.415 98.6582 182.665 98.8267 182.077C99.0284 181.337 98.5156 180.709 98.1187 181.388Z" fill="black"/>
</g>
<path d="M26.9184 183.5C26.5824 183.503 26.2602 183.461 25.9516 183.375C25.643 183.285 25.3942 183.168 25.2052 183.026L25.5303 182.291C25.7112 182.418 25.9239 182.523 26.1684 182.605C26.417 182.684 26.6672 182.722 26.9192 182.72C27.1112 182.719 27.2651 182.7 27.3809 182.663C27.5006 182.622 27.5882 182.568 27.6438 182.499C27.6993 182.431 27.7268 182.353 27.7262 182.265C27.7255 182.153 27.6809 182.065 27.5925 182.002C27.504 181.934 27.3876 181.881 27.2434 181.842C27.0991 181.799 26.9388 181.76 26.7626 181.725C26.5903 181.686 26.416 181.64 26.2396 181.585C26.0673 181.53 25.9088 181.459 25.7642 181.372C25.6196 181.285 25.5009 181.17 25.4079 181.026C25.3189 180.883 25.2737 180.699 25.2722 180.475C25.2706 180.235 25.3332 180.017 25.4599 179.82C25.5905 179.619 25.7855 179.46 26.0447 179.342C26.3079 179.22 26.6375 179.158 27.0335 179.155C27.2975 179.154 27.5577 179.184 27.8141 179.246C28.0705 179.304 28.2971 179.395 28.4939 179.518L28.1988 180.258C28.0021 180.147 27.8056 180.066 27.6092 180.016C27.4129 179.961 27.2207 179.934 27.0327 179.935C26.8447 179.937 26.6908 179.96 26.5711 180.005C26.4514 180.049 26.3658 180.108 26.3143 180.18C26.2627 180.249 26.2373 180.329 26.2379 180.421C26.2386 180.529 26.2832 180.616 26.3716 180.684C26.4601 180.747 26.5764 180.798 26.7207 180.838C26.8649 180.877 27.0232 180.916 27.1955 180.954C27.3717 180.993 27.546 181.038 27.7184 181.089C27.8947 181.14 28.0552 181.209 28.1998 181.296C28.3443 181.383 28.4611 181.498 28.5501 181.641C28.643 181.785 28.6902 181.966 28.6917 182.186C28.6933 182.422 28.6287 182.639 28.498 182.836C28.3673 183.033 28.1704 183.192 27.9072 183.314C27.648 183.435 27.3184 183.498 26.9184 183.5ZM30.9004 183.45C30.5324 183.452 30.2079 183.382 29.9269 183.24C29.65 183.098 29.4347 182.903 29.281 182.656C29.1274 182.406 29.0495 182.12 29.0473 181.8C29.0452 181.476 29.1173 181.19 29.2636 180.941C29.4139 180.688 29.6186 180.49 29.8777 180.348C30.1367 180.203 30.4302 180.129 30.7582 180.127C31.0742 180.124 31.3586 180.191 31.6115 180.325C31.8684 180.455 32.0717 180.646 32.2214 180.897C32.371 181.144 32.447 181.441 32.4493 181.789C32.4496 181.825 32.4478 181.867 32.4442 181.915C32.4405 181.959 32.4367 182.001 32.433 182.041L29.8111 182.059L29.8074 181.513L31.9374 181.499L31.5785 181.663C31.5773 181.495 31.5424 181.349 31.4735 181.226C31.4047 181.102 31.3101 181.007 31.1896 180.94C31.0692 180.869 30.9289 180.833 30.7689 180.835C30.6089 180.836 30.4672 180.873 30.3436 180.945C30.2241 181.014 30.1308 181.113 30.0636 181.241C29.9964 181.366 29.9634 181.514 29.9646 181.686L29.9655 181.83C29.9667 182.006 30.0057 182.162 30.0827 182.297C30.1635 182.429 30.2742 182.53 30.4147 182.601C30.5591 182.668 30.7274 182.701 30.9194 182.7C31.0914 182.698 31.2412 182.671 31.3688 182.619C31.5005 182.566 31.62 182.487 31.7273 182.382L32.2288 182.919C32.082 183.088 31.8968 183.219 31.6735 183.313C31.45 183.402 31.1923 183.448 30.9004 183.45ZM35.0233 180.098C35.2793 180.096 35.5076 180.147 35.7083 180.25C35.9129 180.348 36.074 180.503 36.1914 180.714C36.3088 180.922 36.3686 181.189 36.3708 181.517L36.3831 183.365L35.4471 183.371L35.4357 181.667C35.434 181.407 35.3747 181.216 35.2579 181.093C35.1451 180.969 34.9847 180.908 34.7767 180.91C34.6287 180.911 34.4949 180.944 34.3753 181.009C34.2597 181.069 34.1683 181.164 34.1012 181.292C34.0381 181.421 34.0072 181.585 34.0085 181.785L34.0191 183.381L33.0831 183.387L33.0616 180.159L33.9556 180.153L33.9616 181.047L33.7918 180.778C33.9063 180.562 34.0712 180.395 34.2864 180.277C34.5017 180.16 34.7473 180.1 35.0233 180.098ZM38.6412 183.398C38.3372 183.4 38.0628 183.334 37.8179 183.2C37.5729 183.061 37.3777 182.869 37.232 182.621C37.0904 182.374 37.0184 182.083 37.0162 181.747C37.0139 181.407 37.0819 181.112 37.2203 180.864C37.3626 180.615 37.5553 180.421 37.7984 180.284C38.0415 180.146 38.3151 180.076 38.6191 180.074C38.8911 180.072 39.1294 180.131 39.3342 180.249C39.539 180.368 39.6982 180.549 39.8119 180.792C39.9255 181.036 39.9836 181.347 39.9861 181.727C39.9886 182.103 39.9367 182.415 39.8303 182.664C39.724 182.909 39.5692 183.092 39.366 183.213C39.1668 183.335 38.9252 183.396 38.6412 183.398ZM38.7981 182.629C38.9501 182.628 39.0878 182.591 39.2114 182.518C39.3349 182.445 39.4322 182.343 39.5033 182.21C39.5784 182.074 39.6153 181.914 39.6141 181.73C39.6129 181.542 39.5738 181.382 39.4969 181.25C39.424 181.119 39.3254 181.018 39.2009 180.946C39.0764 180.875 38.9382 180.84 38.7862 180.841C38.6302 180.842 38.4904 180.879 38.3669 180.952C38.2434 181.025 38.1441 181.127 38.0689 181.26C37.9978 181.392 37.9629 181.553 37.9642 181.741C37.9654 181.925 38.0024 182.084 38.0753 182.22C38.1522 182.351 38.2529 182.453 38.3774 182.524C38.5019 182.595 38.6421 182.63 38.7981 182.629ZM39.6489 183.343L39.6445 182.683L39.6561 181.723L39.5897 180.77L39.5772 178.892L40.5132 178.886L40.5429 183.337L39.6489 183.343ZM41.4091 183.332L41.3876 180.104L42.3236 180.098L42.3451 183.325L41.4091 183.332ZM41.8526 179.651C41.6806 179.652 41.5403 179.603 41.4316 179.503C41.3229 179.404 41.2681 179.281 41.2671 179.133C41.2662 178.985 41.3193 178.86 41.4267 178.759C41.534 178.659 41.6736 178.608 41.8456 178.607C42.0176 178.606 42.158 178.653 42.2666 178.748C42.3752 178.839 42.43 178.959 42.431 179.107C42.432 179.263 42.3789 179.393 42.2716 179.498C42.1683 179.599 42.0286 179.649 41.8526 179.651ZM45.1539 180.031C45.4099 180.029 45.6382 180.079 45.8389 180.182C46.0436 180.281 46.2046 180.436 46.322 180.647C46.4394 180.854 46.4992 181.122 46.5014 181.45L46.5137 183.298L45.5777 183.304L45.5664 181.6C45.5646 181.34 45.5054 181.148 45.3885 181.025C45.2757 180.902 45.1153 180.841 44.9073 180.842C44.7593 180.843 44.6255 180.876 44.506 180.941C44.3904 181.002 44.299 181.096 44.2318 181.225C44.1687 181.353 44.1378 181.517 44.1391 181.717L44.1498 183.313L43.2138 183.32L43.1923 180.092L44.0862 180.086L44.0922 180.98L43.9224 180.711C44.037 180.494 44.2019 180.327 44.4171 180.21C44.6323 180.092 44.8779 180.032 45.1539 180.031ZM48.9116 184.494C48.6076 184.496 48.3134 184.46 48.0289 184.386C47.7484 184.315 47.5137 184.207 47.3247 184.06L47.6922 183.386C47.8289 183.497 48.0015 183.584 48.2099 183.646C48.4224 183.713 48.6306 183.746 48.8346 183.744C49.1666 183.742 49.4061 183.666 49.5531 183.517C49.7041 183.368 49.7787 183.148 49.7767 182.856L49.7735 182.37L49.8281 181.56L49.8106 180.744L49.806 180.048L50.694 180.042L50.7119 182.73C50.7159 183.33 50.5628 183.773 50.2527 184.059C49.9426 184.345 49.4956 184.49 48.9116 184.494ZM48.7585 183.127C48.4585 183.129 48.1861 183.066 47.9412 182.94C47.7004 182.81 47.5051 182.629 47.3556 182.398C47.21 182.163 47.1362 181.889 47.1341 181.577C47.132 181.261 47.2022 180.987 47.3446 180.754C47.4911 180.517 47.6838 180.334 47.923 180.204C48.1661 180.075 48.4377 180.009 48.7377 180.007C49.0097 180.005 49.2501 180.059 49.4588 180.17C49.6675 180.277 49.8306 180.445 49.9482 180.677C50.0657 180.904 50.1257 181.198 50.1281 181.558C50.1304 181.914 50.0744 182.208 49.9599 182.441C49.8455 182.669 49.6846 182.841 49.4774 182.954C49.2701 183.067 49.0305 183.125 48.7585 183.127ZM48.9394 182.357C49.1034 182.356 49.2491 182.323 49.3767 182.259C49.5043 182.19 49.6036 182.095 49.6748 181.975C49.746 181.854 49.7811 181.716 49.7801 181.56C49.779 181.4 49.7421 181.262 49.6693 181.147C49.5965 181.027 49.4959 180.936 49.3675 180.873C49.239 180.805 49.0928 180.772 48.9288 180.773C48.7648 180.775 48.619 180.81 48.4915 180.878C48.3639 180.943 48.2625 181.036 48.1873 181.156C48.1161 181.273 48.081 181.411 48.0821 181.571C48.0831 181.727 48.1201 181.865 48.1929 181.984C48.2697 182.104 48.3723 182.197 48.5007 182.264C48.6292 182.328 48.7754 182.359 48.9394 182.357ZM55.2658 183.239L55.2616 182.609L55.2007 182.472L55.1931 181.344C55.1918 181.144 55.1288 180.988 55.004 180.877C54.8833 180.766 54.6969 180.711 54.4449 180.713C54.2729 180.714 54.1031 180.743 53.9355 180.8C53.7718 180.853 53.6323 180.926 53.5169 181.019L53.1766 180.367C53.3518 180.242 53.5631 180.145 53.8106 180.075C54.0582 180.005 54.31 179.97 54.566 179.968C55.0579 179.965 55.4407 180.078 55.7142 180.308C55.9878 180.538 56.1262 180.9 56.1295 181.392L56.1418 183.233L55.2658 183.239ZM54.2821 183.294C54.0301 183.296 53.8138 183.255 53.6333 183.172C53.4527 183.085 53.3139 182.968 53.2169 182.821C53.12 182.674 53.0709 182.508 53.0696 182.324C53.0683 182.132 53.1132 181.964 53.2043 181.819C53.2993 181.674 53.4485 181.561 53.652 181.48C53.8554 181.395 54.1212 181.351 54.4492 181.349L55.3071 181.343L55.3108 181.889L54.5548 181.894C54.3348 181.895 54.183 181.932 54.0995 182.005C54.02 182.078 53.9806 182.168 53.9813 182.276C53.9821 182.396 54.0288 182.492 54.1212 182.563C54.2177 182.63 54.3479 182.663 54.5119 182.662C54.6679 182.661 54.8077 182.624 54.9312 182.552C55.0547 182.475 55.1439 182.364 55.199 182.22L55.3459 182.651C55.2792 182.859 55.1563 183.018 54.977 183.127C54.7977 183.236 54.5661 183.292 54.2821 183.294ZM58.929 179.939C59.185 179.937 59.4133 179.988 59.614 180.09C59.8187 180.189 59.9797 180.344 60.0971 180.555C60.2145 180.762 60.2743 181.03 60.2765 181.358L60.2888 183.206L59.3528 183.212L59.3415 181.508C59.3397 181.248 59.2804 181.056 59.1636 180.933C59.0508 180.81 58.8904 180.749 58.6824 180.75C58.5344 180.751 58.4006 180.784 58.281 180.849C58.1654 180.91 58.0741 181.005 58.0069 181.133C57.9438 181.261 57.9129 181.426 57.9142 181.626L57.9248 183.222L56.9889 183.228L56.9673 180L57.8613 179.994L57.8673 180.888L57.6975 180.619C57.812 180.402 57.9769 180.235 58.1922 180.118C58.4074 180 58.653 179.941 58.929 179.939ZM62.5469 183.239C62.2429 183.241 61.9685 183.175 61.7236 183.04C61.4787 182.902 61.2834 182.709 61.1377 182.462C60.9961 182.215 60.9241 181.924 60.9219 181.588C60.9196 181.248 60.9877 180.953 61.126 180.704C61.2684 180.455 61.4611 180.262 61.7042 180.124C61.9472 179.987 62.2208 179.917 62.5248 179.915C62.7968 179.913 63.0352 179.971 63.24 180.09C63.4448 180.209 63.604 180.39 63.7176 180.633C63.8312 180.876 63.8893 181.188 63.8918 181.568C63.8943 181.944 63.8424 182.256 63.7361 182.505C63.6297 182.75 63.4749 182.933 63.2717 183.054C63.0725 183.175 62.8309 183.237 62.5469 183.239ZM62.7038 182.47C62.8558 182.469 62.9936 182.432 63.1171 182.359C63.2406 182.286 63.3379 182.183 63.409 182.051C63.4841 181.914 63.5211 181.754 63.5198 181.57C63.5186 181.382 63.4795 181.223 63.4026 181.091C63.3298 180.96 63.2311 180.858 63.1066 180.787C62.9821 180.716 62.8439 180.681 62.6919 180.682C62.5359 180.683 62.3961 180.72 62.2726 180.793C62.1491 180.865 62.0498 180.968 61.9747 181.101C61.9035 181.233 61.8686 181.393 61.8699 181.581C61.8711 181.765 61.9082 181.925 61.9811 182.061C62.0579 182.192 62.1586 182.293 62.2831 182.365C62.4076 182.436 62.5478 182.471 62.7038 182.47ZM63.5546 183.184L63.5502 182.524L63.5618 181.564L63.4954 180.61L63.4829 178.732L64.4189 178.726L64.4486 183.178L63.5546 183.184ZM25.5186 190.438L25.4971 187.21L26.3911 187.204L26.3972 188.116L26.2694 187.853C26.3639 187.624 26.5168 187.451 26.728 187.334C26.9392 187.212 27.1968 187.15 27.5008 187.148L27.5065 188.012C27.4665 188.009 27.4305 188.007 27.3985 188.007C27.3665 188.003 27.3324 188.002 27.2964 188.002C27.0405 188.004 26.8329 188.079 26.6739 188.228C26.5189 188.373 26.4424 188.6 26.4445 188.908L26.4546 190.432L25.5186 190.438ZM29.658 190.458C29.29 190.461 28.9655 190.391 28.6846 190.249C28.4076 190.106 28.1923 189.912 28.0387 189.665C27.885 189.414 27.8071 189.128 27.8049 188.808C27.8028 188.484 27.8749 188.198 28.0212 187.949C28.1715 187.696 28.3762 187.499 28.6353 187.357C28.8943 187.211 29.1878 187.137 29.5158 187.135C29.8318 187.133 30.1163 187.199 30.3692 187.333C30.626 187.464 30.8293 187.654 30.979 187.905C31.1286 188.152 31.2046 188.45 31.2069 188.798C31.2072 188.834 31.2055 188.876 31.2018 188.924C31.1981 188.968 31.1944 189.01 31.1906 189.05L28.5687 189.067L28.565 188.521L30.695 188.507L30.3361 188.672C30.335 188.504 30.3 188.358 30.2312 188.234C30.1623 188.111 30.0677 188.015 29.9473 187.948C29.8268 187.877 29.6865 187.842 29.5265 187.843C29.3665 187.844 29.2248 187.881 29.1013 187.954C28.9817 188.023 28.8884 188.121 28.8212 188.25C28.7541 188.374 28.7211 188.522 28.7222 188.694L28.7232 188.838C28.7243 189.014 28.7634 189.17 28.8403 189.306C28.9212 189.437 29.0318 189.538 29.1723 189.609C29.3168 189.676 29.485 189.709 29.677 189.708C29.849 189.707 29.9988 189.68 30.1265 189.627C30.2581 189.574 30.3776 189.495 30.4849 189.391L30.9865 189.927C30.8396 190.096 30.6545 190.228 30.4311 190.321C30.2077 190.41 29.95 190.456 29.658 190.458ZM33.4011 190.433C33.0531 190.436 32.7426 190.368 32.4697 190.229C32.1967 190.087 31.9814 189.891 31.8237 189.64C31.6701 189.389 31.5921 189.103 31.59 188.783C31.5879 188.459 31.6619 188.173 31.8123 187.924C31.9666 187.671 32.1793 187.473 32.4504 187.331C32.7214 187.186 33.0309 187.112 33.3789 187.109C33.7189 187.107 34.0154 187.177 34.2683 187.319C34.5212 187.458 34.7086 187.658 34.8303 187.922L34.107 188.316C34.0219 188.165 33.9152 188.054 33.7867 187.983C33.6622 187.911 33.526 187.876 33.378 187.877C33.218 187.878 33.0743 187.915 32.9467 187.988C32.8192 188.061 32.7179 188.164 32.6428 188.296C32.5717 188.429 32.5367 188.589 32.538 188.777C32.5392 188.965 32.5763 189.125 32.6492 189.256C32.7261 189.388 32.8287 189.489 32.9572 189.56C33.0857 189.631 33.2299 189.666 33.3899 189.665C33.5379 189.664 33.6737 189.629 33.7972 189.561C33.9248 189.488 34.03 189.373 34.113 189.216L34.8416 189.608C34.7233 189.868 34.5387 190.072 34.2876 190.217C34.0366 190.359 33.741 190.431 33.4011 190.433ZM36.9469 190.41C36.5789 190.412 36.2544 190.342 35.9735 190.2C35.6965 190.058 35.4812 189.863 35.3276 189.616C35.1739 189.365 35.096 189.08 35.0938 188.76C35.0917 188.436 35.1638 188.149 35.3101 187.9C35.4604 187.647 35.6651 187.45 35.9242 187.308C36.1832 187.163 36.4767 187.089 36.8047 187.086C37.1207 187.084 37.4052 187.15 37.6581 187.285C37.9149 187.415 38.1182 187.606 38.2679 187.857C38.4175 188.104 38.4935 188.401 38.4958 188.749C38.4961 188.785 38.4944 188.827 38.4907 188.875C38.487 188.919 38.4833 188.961 38.4795 189.001L35.8576 189.019L35.8539 188.473L37.9839 188.459L37.625 188.623C37.6239 188.455 37.5889 188.309 37.5201 188.186C37.4512 188.062 37.3566 187.967 37.2362 187.9C37.1157 187.828 36.9754 187.793 36.8154 187.794C36.6554 187.795 36.5137 187.832 36.3902 187.905C36.2706 187.974 36.1773 188.073 36.1101 188.201C36.043 188.326 36.01 188.474 36.0111 188.646L36.0121 188.79C36.0132 188.966 36.0523 189.122 36.1292 189.257C36.2101 189.388 36.3207 189.49 36.4612 189.561C36.6057 189.628 36.7739 189.661 36.9659 189.659C37.1379 189.658 37.2877 189.631 37.4154 189.578C37.547 189.526 37.6665 189.447 37.7738 189.342L38.2754 189.879C38.1285 190.048 37.9434 190.179 37.72 190.272C37.4966 190.362 37.2389 190.408 36.9469 190.41ZM39.1297 190.347L39.1082 187.119L40.0441 187.113L40.0656 190.341L39.1297 190.347ZM39.5731 186.666C39.4011 186.667 39.2608 186.618 39.1522 186.519C39.0435 186.42 38.9887 186.296 38.9877 186.148C38.9867 186 39.0399 185.876 39.1472 185.775C39.2545 185.674 39.3942 185.623 39.5662 185.622C39.7382 185.621 39.8785 185.668 39.9871 185.763C40.0957 185.854 40.1505 185.974 40.1515 186.122C40.1526 186.278 40.0994 186.408 39.9921 186.513C39.8888 186.614 39.7491 186.665 39.5731 186.666ZM41.8103 190.329L40.4328 187.11L41.3988 187.104L42.5453 189.874L42.0653 189.877L43.2167 187.092L44.1167 187.086L42.7763 190.323L41.8103 190.329ZM44.5202 190.311L44.4987 187.083L45.4346 187.077L45.4562 190.305L44.5202 190.311ZM44.9636 186.63C44.7917 186.631 44.6513 186.582 44.5427 186.483C44.434 186.384 44.3792 186.26 44.3782 186.112C44.3772 185.964 44.4304 185.84 44.5377 185.739C44.645 185.638 44.7847 185.587 44.9567 185.586C45.1287 185.585 45.269 185.632 45.3776 185.727C45.4862 185.819 45.541 185.938 45.542 186.086C45.5431 186.242 45.4899 186.373 45.3826 186.477C45.2793 186.578 45.1396 186.629 44.9636 186.63ZM48.2649 187.01C48.5209 187.008 48.7493 187.059 48.95 187.161C49.1546 187.26 49.3157 187.415 49.4331 187.626C49.5505 187.834 49.6102 188.101 49.6124 188.429L49.6247 190.277L48.6888 190.283L48.6774 188.579C48.6757 188.319 48.6164 188.128 48.4996 188.005C48.3868 187.881 48.2263 187.82 48.0183 187.822C47.8703 187.823 47.7366 187.856 47.617 187.92C47.5014 187.981 47.41 188.076 47.3429 188.204C47.2797 188.333 47.2488 188.497 47.2502 188.697L47.2608 190.293L46.3248 190.299L46.3033 187.071L47.1973 187.065L47.2032 187.959L47.0334 187.69C47.148 187.474 47.3129 187.306 47.5281 187.189C47.7433 187.072 47.9889 187.012 48.2649 187.01ZM52.0226 191.473C51.7187 191.475 51.4244 191.439 51.1399 191.365C50.8594 191.295 50.6247 191.186 50.4357 191.04L50.8032 190.365C50.94 190.476 51.1126 190.563 51.321 190.626C51.5334 190.692 51.7417 190.725 51.9457 190.724C52.2776 190.721 52.5171 190.646 52.6642 190.497C52.8152 190.348 52.8897 190.127 52.8878 189.835L52.8845 189.349L52.9391 188.539L52.9217 187.723L52.917 187.027L53.805 187.021L53.8229 189.709C53.8269 190.309 53.6739 190.752 53.3638 191.038C53.0537 191.324 52.6066 191.469 52.0226 191.473ZM51.8695 190.106C51.5695 190.108 51.2971 190.046 51.0523 189.92C50.8114 189.789 50.6162 189.608 50.4666 189.377C50.3211 189.142 50.2472 188.869 50.2452 188.557C50.2431 188.241 50.3132 187.966 50.4557 187.733C50.6021 187.496 50.7949 187.313 51.034 187.184C51.2772 187.054 51.5487 186.988 51.8487 186.986C52.1207 186.984 52.3611 187.039 52.5698 187.149C52.7786 187.256 52.9417 187.425 53.0592 187.656C53.1767 187.883 53.2367 188.177 53.2391 188.537C53.2415 188.893 53.1854 189.187 53.071 189.42C52.9565 189.649 52.7956 189.82 52.5884 189.933C52.3811 190.047 52.1415 190.104 51.8695 190.106ZM52.0504 189.337C52.2144 189.336 52.3602 189.303 52.4878 189.238C52.6153 189.169 52.7147 189.074 52.7859 188.954C52.8571 188.833 52.8922 188.695 52.8911 188.539C52.89 188.379 52.8531 188.242 52.7804 188.126C52.7076 188.006 52.6069 187.915 52.4785 187.852C52.3501 187.785 52.2038 187.752 52.0399 187.753C51.8759 187.754 51.7301 187.789 51.6025 187.858C51.475 187.923 51.3736 188.015 51.2984 188.136C51.2272 188.252 51.1921 188.391 51.1931 188.551C51.1942 188.707 51.2311 188.844 51.3039 188.964C51.3807 189.083 51.4833 189.177 51.6118 189.244C51.7402 189.307 51.8864 189.338 52.0504 189.337ZM60.5089 186.928C60.7649 186.927 60.9913 186.977 61.188 187.08C61.3886 187.179 61.5457 187.334 61.6591 187.545C61.7765 187.752 61.8362 188.02 61.8384 188.348L61.8507 190.196L60.9148 190.202L60.9034 188.498C60.9017 188.238 60.8464 188.046 60.7376 187.923C60.6287 187.8 60.4763 187.739 60.2803 187.74C60.1443 187.741 60.0226 187.774 59.915 187.838C59.8074 187.899 59.724 187.992 59.6648 188.116C59.6057 188.24 59.5767 188.399 59.578 188.591L59.5888 190.211L58.6528 190.217L58.6415 188.513C58.6397 188.253 58.5844 188.061 58.4756 187.938C58.3708 187.815 58.2204 187.754 58.0244 187.755C57.8884 187.756 57.7666 187.789 57.659 187.853C57.5514 187.914 57.4681 188.007 57.4089 188.131C57.3497 188.256 57.3208 188.414 57.322 188.606L57.3328 190.226L56.3969 190.232L56.3753 187.004L57.2693 186.998L57.2752 187.88L57.1055 187.623C57.216 187.402 57.3729 187.235 57.5762 187.122C57.7834 187.005 58.019 186.945 58.283 186.943C58.579 186.941 58.8375 187.016 59.0585 187.166C59.2835 187.313 59.433 187.54 59.507 187.847L59.1764 187.759C59.2828 187.507 59.4534 187.305 59.6884 187.156C59.9274 187.006 60.2009 186.93 60.5089 186.928ZM64.3154 190.227C63.9474 190.23 63.6229 190.16 63.342 190.018C63.065 189.875 62.8497 189.681 62.6961 189.434C62.5424 189.183 62.4645 188.897 62.4624 188.577C62.4602 188.253 62.5323 187.967 62.6787 187.718C62.829 187.465 63.0337 187.268 63.2927 187.126C63.5518 186.98 63.8453 186.906 64.1733 186.904C64.4893 186.902 64.7737 186.968 65.0266 187.102C65.2835 187.233 65.4867 187.423 65.6364 187.674C65.7861 187.921 65.8621 188.219 65.8644 188.567C65.8646 188.603 65.8629 188.645 65.8592 188.693C65.8555 188.737 65.8518 188.779 65.8481 188.819L63.2261 188.836L63.2225 188.29L65.3524 188.276L64.9935 188.441C64.9924 188.273 64.9574 188.127 64.8886 188.003C64.8198 187.88 64.7251 187.784 64.6047 187.717C64.4842 187.646 64.344 187.611 64.184 187.612C64.024 187.613 63.8822 187.65 63.7587 187.723C63.6392 187.792 63.5458 187.89 63.4787 188.019C63.4115 188.143 63.3785 188.291 63.3796 188.463L63.3806 188.607C63.3818 188.783 63.4208 188.939 63.4977 189.075C63.5786 189.206 63.6893 189.307 63.8297 189.378C63.9742 189.445 64.1424 189.478 64.3344 189.477C64.5064 189.476 64.6562 189.449 64.7839 189.396C64.9155 189.343 65.035 189.264 65.1423 189.16L65.6439 189.696C65.497 189.865 65.3119 189.996 65.0885 190.09C64.8651 190.179 64.6074 190.225 64.3154 190.227ZM67.5845 190.205C67.3085 190.207 67.0423 190.177 66.7859 190.115C66.5334 190.048 66.3329 189.966 66.1842 189.867L66.4917 189.193C66.6403 189.284 66.8148 189.358 67.0152 189.417C67.2196 189.472 67.4198 189.498 67.6158 189.497C67.8318 189.496 67.9836 189.469 68.0712 189.416C68.1629 189.363 68.2084 189.291 68.2078 189.199C68.2073 189.123 68.1709 189.067 68.0987 189.032C68.0304 188.992 67.9382 188.963 67.8221 188.944C67.706 188.925 67.5778 188.905 67.4377 188.886C67.3016 188.867 67.1634 188.842 67.0232 188.811C66.883 188.776 66.7546 188.725 66.6382 188.658C66.5217 188.59 66.4271 188.499 66.3543 188.384C66.2856 188.268 66.2506 188.118 66.2493 187.934C66.248 187.73 66.3048 187.55 66.4197 187.393C66.5387 187.236 66.7099 187.113 66.9333 187.024C67.1567 186.93 67.4243 186.882 67.7363 186.88C67.9563 186.879 68.1805 186.901 68.4088 186.948C68.6371 186.994 68.8276 187.063 68.9802 187.154L68.6726 187.822C68.516 187.731 68.3576 187.67 68.1974 187.639C68.0412 187.604 67.8891 187.587 67.7411 187.588C67.5331 187.59 67.3812 187.619 67.2856 187.675C67.19 187.732 67.1425 187.804 67.1431 187.892C67.1436 187.972 67.178 188.032 67.2463 188.072C67.3185 188.111 67.4127 188.142 67.5289 188.166C67.6451 188.189 67.7712 188.21 67.9073 188.229C68.0474 188.244 68.1876 188.269 68.3278 188.304C68.4681 188.339 68.5944 188.391 68.7069 188.458C68.8233 188.521 68.9179 188.61 68.9907 188.726C69.0634 188.837 69.1004 188.985 69.1016 189.169C69.103 189.369 69.0441 189.548 68.9252 189.704C68.8062 189.857 68.633 189.978 68.4056 190.068C68.1822 190.157 67.9085 190.203 67.5845 190.205ZM70.7719 190.184C70.4959 190.186 70.2297 190.156 69.9733 190.093C69.7209 190.027 69.5203 189.944 69.3716 189.845L69.6792 189.171C69.8278 189.262 70.0023 189.337 70.2027 189.396C70.407 189.451 70.6072 189.477 70.8032 189.476C71.0192 189.474 71.171 189.447 71.2587 189.395C71.3503 189.342 71.3958 189.27 71.3952 189.178C71.3947 189.102 71.3584 189.046 71.2861 189.011C71.2178 188.971 71.1257 188.942 71.0095 188.922C70.8934 188.903 70.7653 188.884 70.6251 188.865C70.489 188.846 70.3508 188.821 70.2106 188.79C70.0704 188.755 69.942 188.704 69.8256 188.636C69.7091 188.569 69.6145 188.478 69.5418 188.362C69.473 188.247 69.438 188.097 69.4368 187.913C69.4354 187.709 69.4922 187.529 69.6072 187.372C69.7261 187.215 69.8973 187.092 70.1207 187.002C70.3441 186.909 70.6118 186.861 70.9238 186.859C71.1438 186.858 71.3679 186.88 71.5962 186.927C71.8245 186.973 72.015 187.042 72.1676 187.133L71.8601 187.801C71.7035 187.71 71.545 187.649 71.3848 187.618C71.2286 187.583 71.0765 187.566 70.9285 187.567C70.7205 187.568 70.5687 187.597 70.4731 187.654C70.3774 187.711 70.3299 187.783 70.3305 187.871C70.331 187.951 70.3654 188.011 70.4337 188.05C70.506 188.09 70.6002 188.121 70.7163 188.144C70.8325 188.168 70.9586 188.189 71.0948 188.208C71.2349 188.223 71.375 188.248 71.5153 188.283C71.6555 188.318 71.7819 188.369 71.8943 188.437C72.0107 188.5 72.1053 188.589 72.1781 188.705C72.2508 188.816 72.2878 188.964 72.2891 189.148C72.2904 189.348 72.2316 189.526 72.1126 189.683C71.9936 189.836 71.8204 189.957 71.593 190.047C71.3696 190.136 71.0959 190.182 70.7719 190.184ZM74.853 190.109L74.8488 189.479L74.7879 189.341L74.7804 188.213C74.779 188.013 74.716 187.858 74.5913 187.747C74.4705 187.635 74.2841 187.581 74.0322 187.582C73.8602 187.583 73.6903 187.613 73.5227 187.67C73.3591 187.723 73.2196 187.796 73.1042 187.889L72.7638 187.237C72.939 187.112 73.1503 187.014 73.3979 186.945C73.6454 186.875 73.8972 186.839 74.1532 186.837C74.6452 186.834 75.0279 186.948 75.3015 187.178C75.575 187.408 75.7134 187.769 75.7167 188.261L75.729 190.103L74.853 190.109ZM73.8694 190.163C73.6174 190.165 73.4011 190.125 73.2205 190.042C73.0399 189.955 72.9012 189.838 72.8042 189.691C72.7072 189.543 72.6581 189.378 72.6569 189.194C72.6556 189.002 72.7005 188.833 72.7915 188.689C72.8865 188.544 73.0358 188.431 73.2393 188.35C73.4427 188.264 73.7084 188.22 74.0364 188.218L74.8944 188.213L74.898 188.759L74.142 188.764C73.922 188.765 73.7703 188.802 73.6868 188.875C73.6072 188.947 73.5678 189.037 73.5686 189.145C73.5694 189.265 73.616 189.361 73.7085 189.433C73.8049 189.5 73.9352 189.533 74.0992 189.532C74.2551 189.531 74.3949 189.494 74.5184 189.421C74.6419 189.344 74.7312 189.234 74.7862 189.089L74.9331 189.52C74.8665 189.729 74.7435 189.888 74.5643 189.997C74.385 190.106 74.1534 190.162 73.8694 190.163ZM78.1256 191.299C77.8216 191.301 77.5273 191.265 77.2428 191.191C76.9624 191.121 76.7276 191.012 76.5387 190.866L76.9062 190.191C77.0429 190.302 77.2155 190.389 77.4239 190.452C77.6364 190.518 77.8446 190.551 78.0486 190.55C78.3806 190.547 78.6201 190.472 78.7671 190.323C78.9181 190.174 78.9926 189.953 78.9907 189.661L78.9874 189.175L79.042 188.365L79.0246 187.549L79.02 186.853L79.9079 186.847L79.9259 189.535C79.9299 190.135 79.7768 190.578 79.4667 190.864C79.1566 191.15 78.7096 191.295 78.1256 191.299ZM77.9725 189.932C77.6725 189.934 77.4001 189.872 77.1552 189.746C76.9143 189.615 76.7191 189.434 76.5696 189.203C76.424 188.968 76.3502 188.695 76.3481 188.383C76.346 188.067 76.4162 187.792 76.5586 187.559C76.705 187.322 76.8978 187.139 77.137 187.01C77.3801 186.88 77.6517 186.814 77.9517 186.812C78.2237 186.81 78.464 186.865 78.6728 186.975C78.8815 187.082 79.0446 187.251 79.1622 187.482C79.2797 187.709 79.3396 188.003 79.342 188.363C79.3444 188.719 79.2884 189.013 79.1739 189.246C79.0594 189.475 78.8986 189.646 78.6913 189.759C78.4841 189.873 78.2445 189.93 77.9725 189.932ZM78.1533 189.163C78.3173 189.162 78.4631 189.129 78.5907 189.064C78.7182 188.995 78.8176 188.9 78.8888 188.78C78.96 188.659 78.9951 188.521 78.994 188.365C78.993 188.205 78.9561 188.068 78.8833 187.952C78.8105 187.832 78.7099 187.741 78.5815 187.678C78.453 187.611 78.3068 187.578 78.1428 187.579C77.9788 187.58 77.833 187.615 77.7055 187.684C77.5779 187.749 77.4765 187.841 77.4013 187.962C77.3301 188.078 77.295 188.217 77.2961 188.377C77.2971 188.533 77.334 188.67 77.4068 188.79C77.4836 188.909 77.5863 189.003 77.7147 189.07C77.8431 189.133 77.9893 189.164 78.1533 189.163ZM82.4029 190.107C82.0349 190.109 81.7104 190.039 81.4295 189.897C81.1525 189.755 80.9372 189.56 80.7836 189.313C80.6299 189.062 80.552 188.777 80.5499 188.457C80.5477 188.133 80.6198 187.846 80.7661 187.597C80.9165 187.344 81.1211 187.147 81.3802 187.005C81.6392 186.86 81.9328 186.786 82.2607 186.783C82.5767 186.781 82.8612 186.847 83.1141 186.982C83.371 187.112 83.5742 187.303 83.7239 187.554C83.8736 187.801 83.9495 188.098 83.9519 188.446C83.9521 188.482 83.9504 188.524 83.9467 188.572C83.943 188.616 83.9393 188.658 83.9355 188.698L81.3136 188.716L81.31 188.17L83.4399 188.156L83.081 188.32C83.0799 188.152 83.0449 188.006 82.9761 187.883C82.9073 187.759 82.8126 187.664 82.6922 187.597C82.5717 187.525 82.4315 187.49 82.2715 187.491C82.1115 187.492 81.9697 187.529 81.8462 187.602C81.7267 187.671 81.6333 187.77 81.5662 187.898C81.499 188.023 81.466 188.171 81.4671 188.343L81.4681 188.487C81.4693 188.663 81.5083 188.819 81.5852 188.954C81.6661 189.085 81.7768 189.187 81.9172 189.258C82.0617 189.325 82.2299 189.358 82.4219 189.356C82.5939 189.355 82.7437 189.328 82.8714 189.275C83.003 189.223 83.1225 189.144 83.2298 189.039L83.7314 189.576C83.5845 189.745 83.3994 189.876 83.176 189.969C82.9526 190.059 82.6949 190.105 82.4029 190.107ZM85.672 190.085C85.396 190.087 85.1298 190.056 84.8734 189.994C84.6209 189.928 84.4204 189.845 84.2717 189.746L84.5792 189.072C84.7278 189.163 84.9023 189.238 85.1027 189.297C85.3071 189.351 85.5073 189.378 85.7033 189.377C85.9193 189.375 86.0711 189.348 86.1587 189.296C86.2504 189.243 86.2959 189.171 86.2953 189.079C86.2948 189.003 86.2584 188.947 86.1862 188.911C86.1179 188.872 86.0257 188.842 85.9096 188.823C85.7934 188.804 85.6653 188.785 85.5252 188.766C85.3891 188.747 85.2509 188.722 85.1107 188.69C84.9704 188.655 84.8421 188.604 84.7256 188.537C84.6092 188.47 84.5146 188.378 84.4418 188.263C84.373 188.147 84.338 187.998 84.3368 187.814C84.3355 187.61 84.3923 187.429 84.5072 187.272C84.6262 187.116 84.7974 186.993 85.0208 186.903C85.2441 186.81 85.5118 186.762 85.8238 186.76C86.0438 186.758 86.268 186.781 86.4963 186.827C86.7246 186.874 86.9151 186.942 87.0677 187.033L86.7601 187.701C86.6035 187.611 86.4451 187.55 86.2849 187.519C86.1287 187.484 85.9765 187.467 85.8285 187.468C85.6205 187.469 85.4687 187.498 85.3731 187.555C85.2775 187.611 85.23 187.684 85.2306 187.772C85.2311 187.852 85.2655 187.911 85.3338 187.951C85.406 187.991 85.5002 188.022 85.6164 188.045C85.7325 188.068 85.8587 188.089 85.9948 188.109C86.1349 188.124 86.2751 188.149 86.4153 188.184C86.5556 188.219 86.6819 188.27 86.7944 188.337C86.9108 188.4 87.0054 188.49 87.0782 188.605C87.1509 188.717 87.1879 188.865 87.1891 189.049C87.1904 189.249 87.1316 189.427 87.0127 189.584C86.8937 189.737 86.7205 189.858 86.4931 189.947C86.2697 190.037 85.996 190.083 85.672 190.085Z" fill="black"/>
<path d="M27.5484 212.496C27.2244 212.498 26.9221 212.448 26.6414 212.346C26.3647 212.24 26.1237 212.09 25.9184 211.895C25.7131 211.7 25.5515 211.471 25.4338 211.208C25.32 210.945 25.2621 210.655 25.26 210.339C25.2579 210.023 25.3119 209.733 25.4222 209.468C25.5364 209.203 25.6949 208.972 25.8976 208.775C26.1043 208.578 26.3453 208.426 26.6206 208.32C26.8958 208.21 27.1975 208.154 27.5255 208.152C27.8895 208.15 28.2179 208.212 28.5107 208.338C28.8075 208.46 29.0568 208.642 29.2584 208.885L28.6382 209.465C28.4931 209.302 28.3323 209.181 28.1558 209.102C27.9793 209.019 27.787 208.978 27.579 208.98C27.383 208.981 27.2032 209.014 27.0396 209.079C26.8761 209.144 26.7347 209.237 26.6155 209.358C26.4963 209.479 26.4032 209.622 26.3363 209.786C26.2734 209.951 26.2426 210.133 26.244 210.333C26.2453 210.533 26.2785 210.714 26.3436 210.878C26.4127 211.042 26.5076 211.183 26.6284 211.302C26.7492 211.421 26.8918 211.512 27.0563 211.575C27.2207 211.638 27.4009 211.669 27.5969 211.668C27.8049 211.666 27.9966 211.625 28.1721 211.544C28.3475 211.459 28.5067 211.332 28.6496 211.163L29.2774 211.735C29.079 211.98 28.8323 212.168 28.5371 212.297C28.246 212.427 27.9164 212.494 27.5484 212.496ZM31.8347 212.395L31.8305 211.766L31.7695 211.628L31.762 210.5C31.7607 210.3 31.6976 210.144 31.5729 210.033C31.4522 209.922 31.2658 209.867 31.0138 209.869C30.8418 209.87 30.672 209.899 30.5044 209.956C30.3407 210.009 30.2012 210.082 30.0858 210.175L29.7455 209.523C29.9206 209.398 30.132 209.301 30.3795 209.231C30.6271 209.161 30.8788 209.126 31.1348 209.124C31.6268 209.121 32.0096 209.234 32.2831 209.464C32.5567 209.695 32.6951 210.056 32.6984 210.548L32.7106 212.39L31.8347 212.395ZM30.851 212.45C30.599 212.452 30.3827 212.411 30.2022 212.328C30.0216 212.242 29.8828 212.124 29.7858 211.977C29.6888 211.83 29.6397 211.664 29.6385 211.48C29.6372 211.288 29.6821 211.12 29.7731 210.975C29.8682 210.831 30.0174 210.718 30.2209 210.636C30.4243 210.551 30.69 210.507 31.018 210.505L31.876 210.499L31.8797 211.045L31.1237 211.05C30.9037 211.052 30.7519 211.089 30.6684 211.161C30.5889 211.234 30.5495 211.324 30.5502 211.432C30.551 211.552 30.5976 211.648 30.6901 211.719C30.7866 211.786 30.9168 211.82 31.0808 211.819C31.2368 211.817 31.3765 211.781 31.5001 211.708C31.6236 211.631 31.7128 211.52 31.7679 211.376L31.9147 211.807C31.8481 212.015 31.7252 212.174 31.5459 212.283C31.3666 212.393 31.135 212.448 30.851 212.45ZM35.466 212.419C35.194 212.421 34.9556 212.363 34.7508 212.244C34.546 212.125 34.3848 211.944 34.2672 211.701C34.1536 211.454 34.0955 211.142 34.093 210.766C34.0904 210.386 34.1424 210.074 34.2487 209.829C34.3551 209.585 34.5099 209.402 34.7131 209.28C34.9163 209.159 35.1599 209.097 35.4439 209.095C35.7479 209.093 36.0203 209.162 36.2612 209.3C36.5061 209.434 36.6994 209.625 36.8411 209.872C36.9867 210.119 37.0607 210.411 37.0629 210.747C37.0652 211.087 36.9951 211.381 36.8528 211.63C36.7144 211.879 36.5237 212.072 36.2806 212.21C36.0416 212.347 35.77 212.417 35.466 212.419ZM33.5655 213.548L33.5362 209.156L34.4302 209.15L34.4346 209.81L34.423 210.77L34.4894 211.724L34.5015 213.542L33.5655 213.548ZM35.2989 211.652C35.4549 211.651 35.5927 211.614 35.7122 211.542C35.8357 211.469 35.933 211.366 36.0041 211.234C36.0792 211.097 36.1162 210.937 36.1149 210.753C36.1137 210.565 36.0746 210.405 35.9977 210.274C35.9249 210.142 35.8262 210.041 35.7017 209.97C35.5812 209.898 35.443 209.863 35.287 209.864C35.131 209.865 34.9912 209.902 34.8677 209.975C34.7442 210.048 34.6469 210.151 34.5758 210.283C34.5046 210.416 34.4697 210.576 34.471 210.764C34.4722 210.948 34.5093 211.108 34.5822 211.243C34.655 211.375 34.7537 211.476 34.8782 211.547C35.0027 211.618 35.1429 211.653 35.2989 211.652ZM39.0205 212.396C38.6405 212.398 38.3439 212.304 38.1306 212.114C37.9173 211.919 37.8094 211.63 37.8068 211.246L37.7879 208.414L38.7239 208.407L38.7427 211.227C38.7436 211.363 38.7803 211.469 38.8528 211.545C38.9253 211.616 39.0236 211.652 39.1476 211.651C39.2956 211.65 39.4213 211.609 39.5247 211.528L39.7811 212.187C39.6856 212.255 39.5699 212.308 39.4342 212.345C39.3024 212.378 39.1645 212.395 39.0205 212.396ZM37.3 209.923L37.2952 209.203L39.5331 209.188L39.5379 209.908L37.3 209.923ZM41.6699 212.378C41.4019 212.38 41.1615 212.329 40.9489 212.227C40.7402 212.124 40.5771 211.967 40.4597 211.756C40.3423 211.541 40.2824 211.267 40.2802 210.935L40.2681 209.111L41.2041 209.105L41.2153 210.791C41.2171 211.059 41.2744 211.257 41.3872 211.384C41.5041 211.507 41.6665 211.568 41.8745 211.567C42.0185 211.566 42.1463 211.535 42.2579 211.474C42.3694 211.409 42.4568 211.313 42.5199 211.184C42.5831 211.052 42.614 210.888 42.6127 210.692L42.602 209.096L43.538 209.089L43.5595 212.317L42.6715 212.323L42.6656 211.435L42.8293 211.692C42.7228 211.917 42.564 212.088 42.3527 212.205C42.1455 212.319 41.9179 212.376 41.6699 212.378ZM44.4266 212.312L44.4051 209.084L45.2991 209.078L45.3052 209.99L45.1774 209.726C45.2719 209.498 45.4248 209.325 45.636 209.207C45.8472 209.086 46.1048 209.024 46.4088 209.022L46.4145 209.886C46.3745 209.883 46.3385 209.881 46.3065 209.881C46.2745 209.877 46.2404 209.875 46.2044 209.876C45.9484 209.877 45.7409 209.953 45.5819 210.102C45.4269 210.247 45.3504 210.473 45.3525 210.781L45.3626 212.305L44.4266 212.312ZM46.993 212.294L46.9715 209.067L47.9075 209.06L47.929 212.288L46.993 212.294ZM47.4365 208.613C47.2645 208.615 47.1241 208.565 47.0155 208.466C46.9068 208.367 46.852 208.243 46.851 208.095C46.85 207.947 46.9032 207.823 47.0105 207.722C47.1178 207.622 47.2575 207.571 47.4295 207.569C47.6015 207.568 47.7418 207.615 47.8505 207.711C47.9591 207.802 48.0139 207.922 48.0149 208.07C48.0159 208.226 47.9628 208.356 47.8555 208.461C47.7521 208.561 47.6125 208.612 47.4365 208.613ZM50.7378 208.993C50.9938 208.992 51.2221 209.042 51.4228 209.145C51.6274 209.243 51.7885 209.398 51.9059 209.61C52.0233 209.817 52.0831 210.084 52.0852 210.412L52.0976 212.26L51.1616 212.267L51.1502 210.563C51.1485 210.303 51.0892 210.111 50.9724 209.988C50.8596 209.865 50.6992 209.804 50.4912 209.805C50.3432 209.806 50.2094 209.839 50.0898 209.904C49.9742 209.965 49.8828 210.059 49.8157 210.188C49.7526 210.316 49.7216 210.48 49.723 210.68L49.7336 212.276L48.7976 212.282L48.7761 209.054L49.6701 209.049L49.6761 209.943L49.5063 209.674C49.6208 209.457 49.7857 209.29 50.0009 209.172C50.2162 209.055 50.4618 208.995 50.7378 208.993ZM54.4955 213.456C54.1915 213.458 53.8972 213.422 53.6127 213.348C53.3323 213.278 53.0975 213.17 52.9085 213.023L53.2761 212.349C53.4128 212.46 53.5854 212.547 53.7938 212.609C54.0062 212.676 54.2145 212.708 54.4185 212.707C54.7505 212.705 54.99 212.629 55.137 212.48C55.288 212.331 55.3625 212.111 55.3606 211.819L55.3573 211.333L55.4119 210.522L55.3945 209.706L55.3898 209.01L56.2778 209.004L56.2957 211.692C56.2997 212.292 56.1467 212.735 55.8366 213.022C55.5265 213.308 55.0795 213.453 54.4955 213.456ZM54.3423 212.089C54.0424 212.091 53.7699 212.029 53.5251 211.903C53.2842 211.773 53.089 211.592 52.9395 211.361C52.7939 211.126 52.7201 210.852 52.718 210.54C52.7159 210.224 52.7861 209.95 52.9285 209.717C53.0749 209.48 53.2677 209.297 53.5069 209.167C53.75 209.037 54.0216 208.972 54.3216 208.97C54.5935 208.968 54.8339 209.022 55.0427 209.133C55.2514 209.239 55.4145 209.408 55.532 209.639C55.6496 209.867 55.7095 210.16 55.7119 210.52C55.7143 210.876 55.6583 211.171 55.5438 211.403C55.4293 211.632 55.2685 211.803 55.0612 211.917C54.854 212.03 54.6143 212.088 54.3423 212.089ZM54.5232 211.32C54.6872 211.319 54.833 211.286 54.9606 211.221C55.0881 211.152 55.1875 211.058 55.2587 210.937C55.3299 210.817 55.365 210.679 55.3639 210.523C55.3629 210.363 55.3259 210.225 55.2532 210.109C55.1804 209.99 55.0798 209.898 54.9513 209.835C54.8229 209.768 54.6767 209.735 54.5127 209.736C54.3487 209.737 54.2029 209.772 54.0754 209.841C53.9478 209.906 53.8464 209.999 53.7712 210.119C53.7 210.236 53.6649 210.374 53.666 210.534C53.667 210.69 53.7039 210.828 53.7767 210.947C53.8535 211.067 53.9561 211.16 54.0846 211.227C54.213 211.29 54.3592 211.321 54.5232 211.32ZM59.8057 212.209L59.7829 208.801L58.439 208.81L58.4337 208.018L62.0936 207.994L62.0989 208.786L60.7549 208.795L60.7776 212.203L59.8057 212.209ZM62.5083 212.191L62.4868 208.963L63.3807 208.957L63.3868 209.869L63.2591 209.606C63.3535 209.377 63.5064 209.204 63.7176 209.087C63.9288 208.965 64.1864 208.904 64.4904 208.902L64.4961 209.766C64.4561 209.762 64.4201 209.76 64.3881 209.76C64.3561 209.757 64.3221 209.755 64.2861 209.755C64.0301 209.757 63.8226 209.832 63.6636 209.981C63.5085 210.126 63.432 210.353 63.4341 210.661L63.4442 212.185L62.5083 212.191ZM66.8378 212.162L66.8336 211.532L66.7727 211.395L66.7651 210.267C66.7638 210.067 66.7008 209.911 66.576 209.8C66.4553 209.689 66.2689 209.634 66.0169 209.636C65.8449 209.637 65.6751 209.666 65.5075 209.723C65.3438 209.776 65.2043 209.849 65.0889 209.942L64.7486 209.29C64.9238 209.165 65.1351 209.067 65.3827 208.998C65.6302 208.928 65.882 208.892 66.138 208.891C66.63 208.887 67.0127 209.001 67.2863 209.231C67.5598 209.461 67.6982 209.822 67.7015 210.314L67.7138 212.156L66.8378 212.162ZM65.8541 212.217C65.6021 212.218 65.3859 212.178 65.2053 212.095C65.0247 212.008 64.8859 211.891 64.7889 211.744C64.692 211.596 64.6429 211.431 64.6416 211.247C64.6404 211.055 64.6852 210.886 64.7763 210.742C64.8713 210.597 65.0206 210.484 65.224 210.403C65.4275 210.318 65.6932 210.274 66.0212 210.272L66.8791 210.266L66.8828 210.812L66.1268 210.817C65.9068 210.818 65.755 210.855 65.6715 210.928C65.592 211 65.5526 211.091 65.5533 211.199C65.5541 211.319 65.6008 211.414 65.6932 211.486C65.7897 211.553 65.9199 211.586 66.0839 211.585C66.2399 211.584 66.3797 211.547 66.5032 211.474C66.6267 211.398 66.7159 211.287 66.771 211.143L66.9179 211.574C66.8512 211.782 66.7283 211.941 66.549 212.05C66.3698 212.159 66.1381 212.215 65.8541 212.217ZM68.6749 212.15L68.6529 208.85C68.6504 208.486 68.7565 208.195 68.9711 207.978C69.1856 207.756 69.4929 207.644 69.8928 207.642C70.0288 207.641 70.1589 207.654 70.2831 207.681C70.4113 207.708 70.5196 207.752 70.608 207.811L70.3665 208.491C70.3143 208.455 70.2561 208.427 70.192 208.408C70.1278 208.388 70.0598 208.379 69.9878 208.379C69.8518 208.38 69.746 208.421 69.6706 208.501C69.5991 208.578 69.5639 208.694 69.5649 208.85L69.5669 209.15L69.5936 209.552L69.6108 212.144L68.6749 212.15ZM68.1606 209.717L68.1558 208.997L70.3938 208.982L70.3986 209.702L68.1606 209.717ZM70.9951 212.134L70.9731 208.835C70.9707 208.471 71.0768 208.18 71.2913 207.962C71.5059 207.741 71.8131 207.629 72.2131 207.626C72.3491 207.625 72.4792 207.638 72.6034 207.666C72.7316 207.693 72.8399 207.736 72.9282 207.795L72.6868 208.475C72.6345 208.439 72.5763 208.412 72.5122 208.392C72.4481 208.373 72.38 208.363 72.308 208.364C72.172 208.365 72.0663 208.405 71.9908 208.486C71.9193 208.562 71.8841 208.678 71.8852 208.834L71.8872 209.134L71.9138 209.536L71.9311 212.128L70.9951 212.134ZM70.4809 209.702L70.4761 208.982L72.7141 208.967L72.7189 209.687L70.4809 209.702ZM73.2631 212.119L73.2416 208.891L74.1775 208.885L74.1991 212.113L73.2631 212.119ZM73.7066 208.438C73.5346 208.439 73.3942 208.39 73.2856 208.291C73.1769 208.192 73.1221 208.068 73.1211 207.92C73.1201 207.772 73.1733 207.648 73.2806 207.547C73.3879 207.446 73.5276 207.395 73.6996 207.394C73.8716 207.393 74.0119 207.44 74.1205 207.536C74.2292 207.627 74.284 207.746 74.2849 207.894C74.286 208.05 74.2328 208.181 74.1255 208.286C74.0222 208.386 73.8825 208.437 73.7066 208.438ZM76.6249 212.145C76.2769 212.147 75.9665 212.079 75.6935 211.941C75.4206 211.799 75.2053 211.602 75.0476 211.351C74.8939 211.1 74.816 210.815 74.8139 210.495C74.8117 210.171 74.8858 209.884 75.0362 209.635C75.1905 209.382 75.4032 209.185 75.6742 209.043C75.9453 208.897 76.2548 208.823 76.6028 208.821C76.9428 208.819 77.2392 208.889 77.4922 209.031C77.7451 209.169 77.9325 209.37 78.0542 209.633L77.3308 210.028C77.2458 209.877 77.1391 209.765 77.0106 209.694C76.8861 209.623 76.7499 209.588 76.6019 209.589C76.4419 209.59 76.2981 209.627 76.1706 209.7C76.0431 209.773 75.9418 209.875 75.8667 210.008C75.7955 210.14 75.7606 210.301 75.7619 210.489C75.7631 210.677 75.8002 210.836 75.8731 210.968C75.9499 211.099 76.0526 211.201 76.1811 211.272C76.3096 211.343 76.4538 211.378 76.6138 211.377C76.7618 211.376 76.8976 211.341 77.0211 211.272C77.1486 211.199 77.2539 211.085 77.3368 210.928L78.0654 211.319C77.9472 211.58 77.7625 211.783 77.5115 211.929C77.2604 212.071 76.9649 212.143 76.6249 212.145Z" fill="black"/>
<path d="M36.498 75V70.8H38.55C39.078 70.8 39.474 70.9 39.738 71.1C40.006 71.3 40.14 71.564 40.14 71.892C40.14 72.112 40.086 72.304 39.978 72.468C39.87 72.628 39.722 72.752 39.534 72.84C39.346 72.928 39.13 72.972 38.886 72.972L39 72.726C39.264 72.726 39.498 72.77 39.702 72.858C39.906 72.942 40.064 73.068 40.176 73.236C40.292 73.404 40.35 73.61 40.35 73.854C40.35 74.214 40.208 74.496 39.924 74.7C39.64 74.9 39.222 75 38.67 75H36.498ZM37.464 74.268H38.598C38.85 74.268 39.04 74.228 39.168 74.148C39.3 74.064 39.366 73.932 39.366 73.752C39.366 73.576 39.3 73.446 39.168 73.362C39.04 73.274 38.85 73.23 38.598 73.23H37.392V72.522H38.43C38.666 72.522 38.846 72.482 38.97 72.402C39.098 72.318 39.162 72.192 39.162 72.024C39.162 71.86 39.098 71.738 38.97 71.658C38.846 71.574 38.666 71.532 38.43 71.532H37.464V74.268ZM43.1259 75.072C42.7939 75.072 42.4859 75.018 42.2019 74.91C41.9219 74.802 41.6779 74.65 41.4699 74.454C41.2659 74.258 41.1059 74.028 40.9899 73.764C40.8779 73.5 40.8219 73.212 40.8219 72.9C40.8219 72.588 40.8779 72.3 40.9899 72.036C41.1059 71.772 41.2679 71.542 41.4759 71.346C41.6839 71.15 41.9279 70.998 42.2079 70.89C42.4879 70.782 42.7919 70.728 43.1199 70.728C43.4519 70.728 43.7559 70.782 44.0319 70.89C44.3119 70.998 44.5539 71.15 44.7579 71.346C44.9659 71.542 45.1279 71.772 45.2439 72.036C45.3599 72.296 45.4179 72.584 45.4179 72.9C45.4179 73.212 45.3599 73.502 45.2439 73.77C45.1279 74.034 44.9659 74.264 44.7579 74.46C44.5539 74.652 44.3119 74.802 44.0319 74.91C43.7559 75.018 43.4539 75.072 43.1259 75.072ZM43.1199 74.244C43.3079 74.244 43.4799 74.212 43.6359 74.148C43.7959 74.084 43.9359 73.992 44.0559 73.872C44.1759 73.752 44.2679 73.61 44.3319 73.446C44.3999 73.282 44.4339 73.1 44.4339 72.9C44.4339 72.7 44.3999 72.518 44.3319 72.354C44.2679 72.19 44.1759 72.048 44.0559 71.928C43.9399 71.808 43.8019 71.716 43.6419 71.652C43.4819 71.588 43.3079 71.556 43.1199 71.556C42.9319 71.556 42.7579 71.588 42.5979 71.652C42.4419 71.716 42.3039 71.808 42.1839 71.928C42.0639 72.048 41.9699 72.19 41.9019 72.354C41.8379 72.518 41.8059 72.7 41.8059 72.9C41.8059 73.096 41.8379 73.278 41.9019 73.446C41.9699 73.61 42.0619 73.752 42.1779 73.872C42.2979 73.992 42.4379 74.084 42.5979 74.148C42.7579 74.212 42.9319 74.244 43.1199 74.244ZM46.9598 75V71.592H45.6158V70.8H49.2758V71.592H47.9318V75H46.9598ZM51.882 75V71.16L52.302 71.58H51.042V70.8H52.854V75H51.882Z" fill="black"/>
<path d="M82.2 54C82.2 72.9986 66.4404 88.4 47 88.4C27.5596 88.4 11.8 72.9986 11.8 54C11.8 35.0014 27.5596 19.6 47 19.6C66.4404 19.6 82.2 35.0014 82.2 54Z" stroke="#FF0000" stroke-width="2"/>
<path d="M108.8 210C108.8 212.651 106.651 214.8 104 214.8C101.349 214.8 99.2 212.651 99.2 210C99.2 207.349 101.349 205.2 104 205.2C106.651 205.2 108.8 207.349 108.8 210Z" stroke="#FF0000" stroke-width="2"/>
<path d="M42.996 167V158.6H44.94V165.416H49.152V167H42.996ZM53.275 167.096C52.539 167.096 51.891 166.952 51.331 166.664C50.779 166.376 50.351 165.984 50.047 165.488C49.743 164.984 49.591 164.412 49.591 163.772C49.591 163.124 49.739 162.552 50.035 162.056C50.339 161.552 50.751 161.16 51.271 160.88C51.791 160.592 52.379 160.448 53.035 160.448C53.667 160.448 54.235 160.584 54.739 160.856C55.251 161.12 55.655 161.504 55.951 162.008C56.247 162.504 56.395 163.1 56.395 163.796C56.395 163.868 56.391 163.952 56.383 164.048C56.375 164.136 56.367 164.22 56.359 164.3H51.115V163.208H55.375L54.655 163.532C54.655 163.196 54.587 162.904 54.451 162.656C54.315 162.408 54.127 162.216 53.887 162.08C53.647 161.936 53.367 161.864 53.047 161.864C52.727 161.864 52.443 161.936 52.195 162.08C51.955 162.216 51.767 162.412 51.631 162.668C51.495 162.916 51.427 163.212 51.427 163.556V163.844C51.427 164.196 51.503 164.508 51.655 164.78C51.815 165.044 52.035 165.248 52.315 165.392C52.603 165.528 52.939 165.596 53.323 165.596C53.667 165.596 53.967 165.544 54.223 165.44C54.487 165.336 54.727 165.18 54.943 164.972L55.939 166.052C55.643 166.388 55.271 166.648 54.823 166.832C54.375 167.008 53.859 167.096 53.275 167.096ZM60.6773 169.424C60.0693 169.424 59.4813 169.348 58.9133 169.196C58.3533 169.052 57.8853 168.832 57.5093 168.536L58.2533 167.192C58.5253 167.416 58.8693 167.592 59.2853 167.72C59.7093 167.856 60.1253 167.924 60.5333 167.924C61.1973 167.924 61.6773 167.776 61.9733 167.48C62.2773 167.184 62.4293 166.744 62.4293 166.16V165.188L62.5493 163.568L62.5253 161.936V160.544H64.3013V165.92C64.3013 167.12 63.9893 168.004 63.3653 168.572C62.7413 169.14 61.8453 169.424 60.6773 169.424ZM60.3893 166.688C59.7893 166.688 59.2453 166.56 58.7573 166.304C58.2773 166.04 57.8893 165.676 57.5933 165.212C57.3053 164.74 57.1613 164.192 57.1613 163.568C57.1613 162.936 57.3053 162.388 57.5933 161.924C57.8893 161.452 58.2773 161.088 58.7573 160.832C59.2453 160.576 59.7893 160.448 60.3893 160.448C60.9333 160.448 61.4133 160.56 61.8293 160.784C62.2453 161 62.5693 161.34 62.8013 161.804C63.0333 162.26 63.1493 162.848 63.1493 163.568C63.1493 164.28 63.0333 164.868 62.8013 165.332C62.5693 165.788 62.2453 166.128 61.8293 166.352C61.4133 166.576 60.9333 166.688 60.3893 166.688ZM60.7613 165.152C61.0893 165.152 61.3813 165.088 61.6373 164.96C61.8933 164.824 62.0933 164.636 62.2373 164.396C62.3813 164.156 62.4533 163.88 62.4533 163.568C62.4533 163.248 62.3813 162.972 62.2373 162.74C62.0933 162.5 61.8933 162.316 61.6373 162.188C61.3813 162.052 61.0893 161.984 60.7613 161.984C60.4333 161.984 60.1413 162.052 59.8853 162.188C59.6293 162.316 59.4253 162.5 59.2733 162.74C59.1293 162.972 59.0573 163.248 59.0573 163.568C59.0573 163.88 59.1293 164.156 59.2733 164.396C59.4253 164.636 59.6293 164.824 59.8853 164.96C60.1413 165.088 60.4333 165.152 60.7613 165.152ZM69.2477 167.096C68.5117 167.096 67.8637 166.952 67.3037 166.664C66.7517 166.376 66.3237 165.984 66.0197 165.488C65.7157 164.984 65.5637 164.412 65.5637 163.772C65.5637 163.124 65.7117 162.552 66.0077 162.056C66.3117 161.552 66.7237 161.16 67.2437 160.88C67.7637 160.592 68.3517 160.448 69.0077 160.448C69.6397 160.448 70.2077 160.584 70.7117 160.856C71.2237 161.12 71.6277 161.504 71.9237 162.008C72.2197 162.504 72.3677 163.1 72.3677 163.796C72.3677 163.868 72.3637 163.952 72.3557 164.048C72.3477 164.136 72.3397 164.22 72.3317 164.3H67.0877V163.208H71.3477L70.6277 163.532C70.6277 163.196 70.5597 162.904 70.4237 162.656C70.2877 162.408 70.0997 162.216 69.8597 162.08C69.6197 161.936 69.3397 161.864 69.0197 161.864C68.6997 161.864 68.4157 161.936 68.1677 162.08C67.9277 162.216 67.7397 162.412 67.6037 162.668C67.4677 162.916 67.3997 163.212 67.3997 163.556V163.844C67.3997 164.196 67.4757 164.508 67.6277 164.78C67.7877 165.044 68.0077 165.248 68.2877 165.392C68.5757 165.528 68.9117 165.596 69.2957 165.596C69.6397 165.596 69.9397 165.544 70.1957 165.44C70.4597 165.336 70.6997 165.18 70.9157 164.972L71.9117 166.052C71.6157 166.388 71.2437 166.648 70.7957 166.832C70.3477 167.008 69.8317 167.096 69.2477 167.096ZM77.538 160.448C78.05 160.448 78.506 160.552 78.906 160.76C79.314 160.96 79.634 161.272 79.866 161.696C80.098 162.112 80.214 162.648 80.214 163.304V167H78.342V163.592C78.342 163.072 78.226 162.688 77.994 162.44C77.77 162.192 77.45 162.068 77.034 162.068C76.738 162.068 76.47 162.132 76.23 162.26C75.998 162.38 75.814 162.568 75.678 162.824C75.55 163.08 75.486 163.408 75.486 163.808V167H73.614V160.544H75.402V162.332L75.066 161.792C75.298 161.36 75.63 161.028 76.062 160.796C76.494 160.564 76.986 160.448 77.538 160.448ZM84.7298 167.096C84.1218 167.096 83.5738 166.96 83.0858 166.688C82.5978 166.408 82.2098 166.02 81.9218 165.524C81.6418 165.028 81.5018 164.444 81.5018 163.772C81.5018 163.092 81.6418 162.504 81.9218 162.008C82.2098 161.512 82.5978 161.128 83.0858 160.856C83.5738 160.584 84.1218 160.448 84.7298 160.448C85.2738 160.448 85.7498 160.568 86.1578 160.808C86.5658 161.048 86.8818 161.412 87.1058 161.9C87.3298 162.388 87.4418 163.012 87.4418 163.772C87.4418 164.524 87.3338 165.148 87.1178 165.644C86.9018 166.132 86.5898 166.496 86.1818 166.736C85.7818 166.976 85.2978 167.096 84.7298 167.096ZM85.0538 165.56C85.3578 165.56 85.6338 165.488 85.8818 165.344C86.1298 165.2 86.3258 164.996 86.4698 164.732C86.6218 164.46 86.6978 164.14 86.6978 163.772C86.6978 163.396 86.6218 163.076 86.4698 162.812C86.3258 162.548 86.1298 162.344 85.8818 162.2C85.6338 162.056 85.3578 161.984 85.0538 161.984C84.7418 161.984 84.4618 162.056 84.2138 162.2C83.9658 162.344 83.7658 162.548 83.6138 162.812C83.4698 163.076 83.3978 163.396 83.3978 163.772C83.3978 164.14 83.4698 164.46 83.6138 164.732C83.7658 164.996 83.9658 165.2 84.2138 165.344C84.4618 165.488 84.7418 165.56 85.0538 165.56ZM86.7458 167V165.68L86.7818 163.76L86.6618 161.852V158.096H88.5338V167H86.7458Z" fill="black"/>
<path d="M216.498 237V232.8H218.55C219.078 232.8 219.474 232.9 219.738 233.1C220.006 233.3 220.14 233.564 220.14 233.892C220.14 234.112 220.086 234.304 219.978 234.468C219.87 234.628 219.722 234.752 219.534 234.84C219.346 234.928 219.13 234.972 218.886 234.972L219 234.726C219.264 234.726 219.498 234.77 219.702 234.858C219.906 234.942 220.064 235.068 220.176 235.236C220.292 235.404 220.35 235.61 220.35 235.854C220.35 236.214 220.208 236.496 219.924 236.7C219.64 236.9 219.222 237 218.67 237H216.498ZM217.464 236.268H218.598C218.85 236.268 219.04 236.228 219.168 236.148C219.3 236.064 219.366 235.932 219.366 235.752C219.366 235.576 219.3 235.446 219.168 235.362C219.04 235.274 218.85 235.23 218.598 235.23H217.392V234.522H218.43C218.666 234.522 218.846 234.482 218.97 234.402C219.098 234.318 219.162 234.192 219.162 234.024C219.162 233.86 219.098 233.738 218.97 233.658C218.846 233.574 218.666 233.532 218.43 233.532H217.464V236.268ZM223.126 237.072C222.794 237.072 222.486 237.018 222.202 236.91C221.922 236.802 221.678 236.65 221.47 236.454C221.266 236.258 221.106 236.028 220.99 235.764C220.878 235.5 220.822 235.212 220.822 234.9C220.822 234.588 220.878 234.3 220.99 234.036C221.106 233.772 221.268 233.542 221.476 233.346C221.684 233.15 221.928 232.998 222.208 232.89C222.488 232.782 222.792 232.728 223.12 232.728C223.452 232.728 223.756 232.782 224.032 232.89C224.312 232.998 224.554 233.15 224.758 233.346C224.966 233.542 225.128 233.772 225.244 234.036C225.36 234.296 225.418 234.584 225.418 234.9C225.418 235.212 225.36 235.502 225.244 235.77C225.128 236.034 224.966 236.264 224.758 236.46C224.554 236.652 224.312 236.802 224.032 236.91C223.756 237.018 223.454 237.072 223.126 237.072ZM223.12 236.244C223.308 236.244 223.48 236.212 223.636 236.148C223.796 236.084 223.936 235.992 224.056 235.872C224.176 235.752 224.268 235.61 224.332 235.446C224.4 235.282 224.434 235.1 224.434 234.9C224.434 234.7 224.4 234.518 224.332 234.354C224.268 234.19 224.176 234.048 224.056 233.928C223.94 233.808 223.802 233.716 223.642 233.652C223.482 233.588 223.308 233.556 223.12 233.556C222.932 233.556 222.758 233.588 222.598 233.652C222.442 233.716 222.304 233.808 222.184 233.928C222.064 234.048 221.97 234.19 221.902 234.354C221.838 234.518 221.806 234.7 221.806 234.9C221.806 235.096 221.838 235.278 221.902 235.446C221.97 235.61 222.062 235.752 222.178 235.872C222.298 235.992 222.438 236.084 222.598 236.148C222.758 236.212 222.932 236.244 223.12 236.244ZM226.96 237V233.592H225.616V232.8H229.276V233.592H227.932V237H226.96ZM231.198 237V236.37L232.818 234.84C232.946 234.724 233.04 234.62 233.1 234.528C233.16 234.436 233.2 234.352 233.22 234.276C233.244 234.2 233.256 234.13 233.256 234.066C233.256 233.898 233.198 233.77 233.082 233.682C232.97 233.59 232.804 233.544 232.584 233.544C232.408 233.544 232.244 233.578 232.092 233.646C231.944 233.714 231.818 233.82 231.714 233.964L231.006 233.508C231.166 233.268 231.39 233.078 231.678 232.938C231.966 232.798 232.298 232.728 232.674 232.728C232.986 232.728 233.258 232.78 233.49 232.884C233.726 232.984 233.908 233.126 234.036 233.31C234.168 233.494 234.234 233.714 234.234 233.97C234.234 234.106 234.216 234.242 234.18 234.378C234.148 234.51 234.08 234.65 233.976 234.798C233.876 234.946 233.728 235.112 233.532 235.296L232.188 236.562L232.002 236.208H234.372V237H231.198Z" fill="black"/>
<defs>
<clipPath id="clip0_2_48">
<rect width="20.0627" height="29.2675" fill="white" transform="matrix(1 0 0.0089893 0.99996 94 170)"/>
</clipPath>
</defs>
</svg>
